<?xml version="1.0"?>
<svg xmlns="http://www.w3.org/2000/svg" xmlns:xlink="http://www.w3.org/1999/xlink" xmlns:svgjs="http://svgjs.com/svgjs" version="1.1" width="512" height="512" x="0" y="0" viewBox="0 0 511.944 511.944" style="enable-background:new 0 0 512 512" xml:space="preserve" class=""><g><g xmlns="http://www.w3.org/2000/svg"><path d="m496.944 138.953h-31.41c-3.127-17.666-10.41-34.732-21.858-49.606l21.616-21.616c5.858-5.858 5.858-15.355 0-21.213-5.857-5.858-15.355-5.858-21.213 0l-21.631 21.631c-14.477-11.112-31.023-18.289-48.174-21.53v-31.417c0-8.284-6.716-15-15-15s-15 6.716-15 15v29.734c-19.497 1.458-38.684 7.884-55.494 19.269l-22.265-22.265c-5.857-5.858-15.355-5.858-21.213 0s-5.858 15.355 0 21.213l20.806 20.806-44.902 44.902-20.952-20.952c-5.857-5.858-15.355-5.858-21.213 0s-5.858 15.355 0 21.213l20.952 20.952-44.902 44.902-20.952-20.952c-5.857-5.858-15.355-5.858-21.213 0s-5.858 15.355 0 21.213l20.952 20.952-44.902 44.902-20.954-20.954c-5.857-5.858-15.355-5.858-21.213 0s-5.858 15.355 0 21.213l21.611 21.611c-12.755 16.503-20.37 35.719-22.857 55.465h-30.563c-8.284 0-15 6.716-15 15s6.716 15 15 15h30.721c2.625 19.234 10.129 37.922 22.517 54.04l-21.778 21.776c-5.858 5.858-5.858 15.355 0 21.213 2.929 2.929 6.768 4.394 10.606 4.394s7.678-1.464 10.606-4.394l21.777-21.777c16.352 12.569 35.35 20.108 54.879 22.627v30.437c0 8.284 6.716 15 15 15s15-6.716 15-15v-30.502c20.457-2.729 40.311-10.972 57.129-24.74l21.339 21.339c2.929 2.929 6.768 4.394 10.606 4.394s7.678-1.464 10.606-4.394c5.858-5.858 5.858-15.355 0-21.213l-20.936-20.936 44.152-44.152 20.936 20.936c2.929 2.929 6.768 4.394 10.606 4.394s7.678-1.464 10.606-4.394c5.858-5.858 5.858-15.355 0-21.213l-20.936-20.936 44.152-44.152 20.936 20.936c2.929 2.929 6.768 4.394 10.606 4.394s7.678-1.464 10.606-4.394c5.858-5.858 5.858-15.355 0-21.213l-20.936-20.936 44.152-44.152 20.936 20.936c2.929 2.929 6.768 4.394 10.606 4.394s7.678-1.464 10.606-4.394c5.858-5.858 5.858-15.355 0-21.213l-22.396-22.396c11.129-16.432 17.516-35.137 19.159-54.182h30.074c8.284 0 15-6.716 15-15s-6.709-15-14.993-15zm-144.65 140.092c-.106.1-.22.189-.324.293s-.192.217-.292.323l-64.751 64.75c-.106.1-.219.188-.322.291-.103.104-.191.216-.291.322l-64.754 64.754c-.105.099-.217.187-.32.29s-.19.215-.289.32l-2.217 2.217c-15.933 15.933-36.707 24.124-57.632 24.621-.582-.069-1.171-.114-1.772-.114-.624 0-1.235.05-1.839.124-21.07-.394-42.019-8.589-58.062-24.631l-.119-.119c-32.892-32.892-32.892-86.412 0-119.304l193.916-193.916c16.446-16.446 38.049-24.669 59.652-24.669 1.612 0 3.223.061 4.833.152.048.005.096.006.144.01 19.826 1.161 39.315 9.257 54.469 24.31.069.071.127.148.198.219.082.082.172.151.256.231 32.76 32.903 32.72 86.321-.128 119.169z" fill="#ffffff" data-original="#000000" style="" class=""/><path d="m257.697 305.412c-13.278 0-24.081-10.802-24.081-24.081 0-8.284-6.716-15-15-15s-15 6.716-15 15c0 29.82 24.26 54.081 54.081 54.081 8.284 0 15-6.716 15-15s-6.716-15-15-15z" fill="#ffffff" data-original="#000000" style="" class=""/><path d="m381.472 136.298c-5.857-5.857-15.355-5.858-21.213 0-10.215 10.214-15.84 23.795-15.84 38.241 0 14.445 5.625 28.026 15.84 38.241 2.929 2.929 6.768 4.393 10.606 4.393s7.678-1.464 10.607-4.394c5.857-5.858 5.857-15.355 0-21.213-4.548-4.548-7.053-10.595-7.053-17.027s2.505-12.479 7.053-17.027c5.858-5.859 5.858-15.356 0-21.214z" fill="#ffffff" data-original="#000000" style="" class=""/><path d="m137.041 322.545c9.389 9.389 9.389 24.666 0 34.055-5.858 5.858-5.858 15.355 0 21.213s15.355 5.858 21.213 0c21.086-21.086 21.086-55.395 0-76.481-5.858-5.858-15.355-5.858-21.213 0s-5.858 15.356 0 21.213z" fill="#ffffff" data-original="#000000" style="" class=""/><path d="m249.17 187.118c9.389 9.389 9.389 24.666 0 34.055-5.858 5.858-5.858 15.355 0 21.213s15.355 5.858 21.213 0c21.086-21.086 21.086-55.395 0-76.481-5.858-5.858-15.355-5.858-21.213 0-5.858 5.857-5.858 15.355 0 21.213z" fill="#ffffff" data-original="#000000" style="" class=""/></g></g></svg>
