<?xml version="1.0"?>
<svg xmlns="http://www.w3.org/2000/svg" xmlns:xlink="http://www.w3.org/1999/xlink" xmlns:svgjs="http://svgjs.com/svgjs" version="1.1" width="512" height="512" x="0" y="0" viewBox="0 0 64 64" style="enable-background:new 0 0 512 512" xml:space="preserve" class=""><g><g xmlns="http://www.w3.org/2000/svg"><path d="m49.117 44.321c-.897-.555-1.953-.736-2.972-.51-.883.197-1.899-.017-2.786-.589l-1.093-.705c.216-1.347.219-2.741-.01-4.142l1.104-.712c.877-.566 1.894-.77 2.86-.573.777.159 1.574.081 2.307-.223 1.095-.454 1.928-1.363 2.285-2.495.356-1.131.19-2.361-.455-3.374-.892-1.398-2.645-2.107-4.261-1.725-1.028.243-1.902.861-2.461 1.741-.486.764-1.355 1.331-2.387 1.553l-1.292.279c-.242-.336-.495-.66-.766-.968l.01-.008 11.198-11.188.703.703c.195.195.451.293.707.293s.512-.098.707-.293l2.829-2.829c.391-.391.391-1.023 0-1.414l-1.414-1.414 2.828-2.828.707.707c.195.195.451.293.707.293s.512-.098.707-.293l2.829-2.828c.187-.188.292-.443.292-.708s-.105-.52-.293-.707l-7.071-7.071c-.375-.375-1.039-.375-1.414 0l-2.828 2.829c-.391.391-.391 1.023 0 1.414l.707.707-2.828 2.828-1.414-1.414c-.391-.391-1.023-.391-1.414 0l-2.829 2.829c-.391.391-.391 1.023 0 1.414l.713.713-12.029 12.017c-.39.39-.39 1.02 0 1.41l.653.653c-1.531-.299-3.078-.329-4.59-.082l-.7-1.086c-.565-.877-.769-1.893-.573-2.859.158-.776.081-1.574-.223-2.308-.454-1.095-1.363-1.928-2.495-2.285-1.131-.355-2.361-.189-3.375.456-1.398.892-2.107 2.644-1.725 4.261.243 1.028.861 1.902 1.741 2.46.764.485 1.33 1.355 1.553 2.387l.273 1.262c-1.123.81-2.108 1.802-2.93 2.943l-1.273-.275c-1.031-.223-1.901-.789-2.387-1.553-.559-.88-1.433-1.498-2.46-1.741-1.613-.38-3.369.327-4.262 1.725-.646 1.013-.812 2.243-.455 3.374.357 1.132 1.189 2.041 2.285 2.495.733.303 1.53.381 2.308.223.967-.199 1.983.007 2.86.573l1.096.707c-.226 1.386-.233 2.784-.011 4.153l-1.084.699c-.887.572-1.901.788-2.787.589-1.019-.229-2.074-.046-2.97.51-1.414.874-2.151 2.614-1.793 4.233.26 1.172 1.012 2.159 2.064 2.707.58.302 1.213.454 1.849.454.519 0 1.039-.101 1.531-.305.733-.304 1.352-.813 1.789-1.473.545-.823 1.407-1.397 2.428-1.618l1.262-.273c.811 1.125 1.804 2.109 2.944 2.928l-.275 1.274c-.223 1.031-.789 1.901-1.553 2.387-.88.559-1.498 1.433-1.741 2.461-.382 1.617.327 3.369 1.725 4.261.663.422 1.417.639 2.177.639.402 0 .806-.061 1.197-.184 1.132-.357 2.041-1.189 2.495-2.285.304-.733.381-1.531.223-2.307-.196-.967.007-1.983.573-2.86l.714-1.107c.695.113 1.393.189 2.089.189.688 0 1.371-.069 2.049-.179l.707 1.096c.572.887.787 1.902.589 2.787-.227 1.018-.045 2.073.51 2.97.725 1.176 2.05 1.884 3.405 1.884.276 0 .553-.029.827-.09 1.172-.259 2.159-1.011 2.707-2.063.548-1.053.603-2.285.149-3.381-.304-.733-.813-1.352-1.473-1.789-.823-.545-1.397-1.407-1.618-2.428l-.275-1.272c1.144-.824 2.13-1.816 2.936-2.934l1.27.275c1.021.221 1.882.795 2.428 1.618.438.66 1.056 1.169 1.789 1.473.493.204 1.013.305 1.532.305.636 0 1.27-.152 1.849-.454 1.052-.548 1.804-1.535 2.063-2.707.357-1.617-.38-3.359-1.794-4.232zm3.398-35.664 2.829 2.829-2.828 2.828-2.829-2.829zm-7.777 6.365 4.25 4.25-2.126 2.116-4.25-4.25zm-5.658 5.658 1.41 1.41c.39.39.39 1.03 0 1.42-.19.19-.45.29-.7.29-.26 0-.52-.1-.71-.29l-1.42-1.42zm-2.83 2.82 1.42 1.42c.39.39.39 1.02 0 1.41-.2.2-.46.3-.71.3-.26 0-.51-.1-.71-.3l-1.41-1.41zm-.032 17.578c.191.296.513.458.841.458.186 0 .373-.051.541-.16l2.791-1.799c.381 4.695-2.281 9.182-6.739 11.029-1.62.671-3.352.935-5.08.794l1.804-2.799c.299-.464.166-1.083-.298-1.382-.465-.3-1.083-.166-1.382.298l-3.713 5.76c-.851 1.318-1.153 2.86-.852 4.342.078.384.04.779-.111 1.143-.227.548-.682.964-1.248 1.143-.575.18-1.177.098-1.698-.234-.682-.435-1.041-1.324-.854-2.115.157-.664.558-1.036.867-1.232 1.231-.782 2.096-2.08 2.436-3.653l1.447-6.697c.117-.54-.227-1.072-.766-1.189-.544-.117-1.072.227-1.189.766l-.702 3.248c-1.321-1.122-2.362-2.527-3.033-4.146-.671-1.621-.935-3.353-.794-5.081l2.8 1.805c.168.108.355.16.541.16.329 0 .65-.162.841-.458.299-.464.166-1.083-.298-1.382l-5.76-3.713c-1.319-.851-2.862-1.151-4.342-.852-.385.078-.779.04-1.144-.111-.548-.227-.964-.682-1.143-1.248-.181-.574-.098-1.177.234-1.698.435-.681 1.328-1.041 2.115-.854.663.157 1.036.558 1.232.867.782 1.231 2.08 2.096 3.653 2.436l6.697 1.447c.542.112 1.072-.227 1.189-.766.117-.54-.227-1.072-.766-1.189l-3.248-.702c1.125-1.322 2.53-2.362 4.146-3.03 1.613-.669 3.33-.939 5.048-.808l-.395.395c-.391.391-.391 1.023 0 1.414l.707.707-3.535 3.535c-.391.391-.391 1.023 0 1.414.195.195.451.293.707.293s.512-.098.707-.293l3.535-3.535.707.707c.195.195.451.293.707.293s.512-.098.707-.293l2.121-2.121.711.708c.144.144.325.229.516.263.108.116.219.23.322.351l-3.247.702c-.54.117-.883.649-.766 1.189.117.539.646.878 1.189.766l6.697-1.447c1.574-.34 2.871-1.205 3.653-2.436.196-.309.569-.71 1.232-.867.793-.187 1.68.172 2.115.854.332.521.415 1.124.234 1.698-.178.566-.595 1.021-1.143 1.248-.363.15-.759.188-1.143.111-1.482-.299-3.023.001-4.342.852l-5.76 3.713c-.464.298-.598.917-.299 1.381z" fill="#ffffff" data-original="#000000" style="" class=""/><path d="m33.363 42.067c-.74.307-1.317.883-1.624 1.624s-.307 1.556 0 2.296.883 1.317 1.624 1.624c.37.153.759.23 1.148.23s.778-.077 1.147-.23c1.528-.632 2.257-2.391 1.624-3.919-.307-.74-.883-1.317-1.624-1.624-.739-.308-1.554-.308-2.295-.001z" fill="#ffffff" data-original="#000000" style="" class=""/><path d="m26.447 38.437c-.211-.51-.796-.753-1.307-.541s-.753.796-.541 1.307c.211.51.796.753 1.307.541.51-.212.753-.797.541-1.307z" fill="#ffffff" data-original="#000000" style="" class=""/><path d="m27.054 42.515c-.51.211-.753.796-.541 1.307.211.51.796.753 1.307.541s.753-.796.541-1.307-.797-.752-1.307-.541z" fill="#ffffff" data-original="#000000" style="" class=""/><path d="m32.597 40.219c.51-.211.753-.796.541-1.307-.211-.51-.796-.753-1.307-.541-.51.211-.753.796-.541 1.307.212.51.797.752 1.307.541z" fill="#ffffff" data-original="#000000" style="" class=""/><path d="m16.4 19.8c.178.133.389.2.6.2s.422-.067.6-.2l8-6c.344-.258.485-.708.349-1.116-.137-.409-.518-.684-.949-.684h-3v-9c0-.552-.448-1-1-1h-8c-.552 0-1 .448-1 1v9h-3c-.431 0-.813.275-.949.684-.136.408.005.858.349 1.116z" fill="#ffffff" data-original="#000000" style="" class=""/><path d="m32.293 20.707c.195.195.451.293.707.293s.512-.098.707-.293l5-5c.286-.286.372-.716.217-1.09-.155-.373-.52-.617-.924-.617h-2v-7c0-.552-.448-1-1-1h-4c-.552 0-1 .448-1 1v7h-2c-.404 0-.769.244-.924.617-.155.374-.069.804.217 1.09z" fill="#ffffff" data-original="#000000" style="" class=""/><path d="m61 39.999h-2v-7c0-.552-.448-1-1-1h-4c-.552 0-1 .448-1 1v7h-2c-.404 0-.769.244-.924.617-.155.374-.069.804.217 1.09l5 5c.195.195.451.293.707.293s.512-.098.707-.293l5-5c.286-.286.372-.716.217-1.09-.155-.373-.52-.617-.924-.617z" fill="#ffffff" data-original="#000000" style="" class=""/><path d="m8.707 28.707 5-5c.286-.286.372-.716.217-1.09-.155-.373-.52-.617-.924-.617h-2v-3c0-.552-.448-1-1-1h-4c-.552 0-1 .448-1 1v3h-2c-.404 0-.769.244-.924.617-.155.374-.069.804.217 1.09l5 5c.195.195.451.293.707.293s.512-.098.707-.293z" fill="#ffffff" data-original="#000000" style="" class=""/></g></g></svg>
